<svg width="224" height="74" viewBox="0 0 224 74" fill="none" xmlns="http://www.w3.org/2000/svg">
<mask id="mask0_4_2" style="mask-type:luminance" maskUnits="userSpaceOnUse" x="17" y="12" width="189" height="50">
<path d="M206 12H17V62H206V12Z" fill="white"/>
</mask>
<g mask="url(#mask0_4_2)">
<path d="M70.7738 60.7979C70.7738 61.1063 70.7114 61.3252 70.582 61.4548C70.4349 61.5978 70.2609 61.6693 70.0602 61.6693C70.029 61.6738 69.9978 61.6783 69.9666 61.6783C69.8015 61.6783 69.6499 61.6202 69.5206 61.5084C69.36 61.3744 69.2574 61.1778 69.2084 60.9141L68.9943 60.999C68.9943 61.2493 69.0969 61.4772 69.3065 61.6872C69.5116 61.8972 69.7659 62 70.0602 62C70.3546 62 70.6043 61.8972 70.814 61.6827C71.0102 61.4861 71.1083 61.2046 71.1083 60.8337V56.0835H70.7783V60.7979H70.7738Z" fill="white"/>
<path d="M79.716 61.9464H82.6418V61.6157H80.0416V59.1803H82.6418V58.8496H80.0416V56.4097H82.6418V56.0835H79.716V61.9464Z" fill="white"/>
<path d="M95.9236 60.5611C95.9236 60.865 95.8121 61.1286 95.5935 61.3431C95.375 61.5576 95.1119 61.6693 94.8086 61.6693C94.5053 61.6693 94.2466 61.5621 94.0236 61.352C93.9389 61.2671 93.872 61.1733 93.814 61.0705V56.0835H93.484V61.0705C93.426 61.1733 93.3591 61.2716 93.2744 61.352C93.0558 61.5665 92.7927 61.6693 92.4894 61.6693C92.1861 61.6693 91.9274 61.5621 91.7044 61.3431C91.4814 61.1286 91.3744 60.865 91.3744 60.5611V56.0835H91.0444V60.5924C91.0533 60.9722 91.1916 61.3029 91.4681 61.5755C91.749 61.857 92.088 62 92.4894 62C92.8908 62 93.2253 61.8615 93.5107 61.5799C93.5643 61.5308 93.6089 61.4816 93.6445 61.428C93.6847 61.4772 93.7293 61.5308 93.7783 61.5799C94.0593 61.8615 94.4027 62 94.7997 62C95.1966 62 95.54 61.857 95.8255 61.5755C96.0975 61.3029 96.2402 60.9722 96.2447 60.5924V56.0835H95.9147V60.5611H95.9236Z" fill="white"/>
<path d="M104.75 61.9464H107.68V61.6157H105.08V59.1803H107.68V58.8496H105.08V56.4097H107.68V56.0835H104.75V61.9464Z" fill="white"/>
<path d="M116.506 56.0835H116.176V61.9464H118.776V61.6157H116.506V56.0835Z" fill="white"/>
<path d="M127.148 61.9464H130.074V61.6157H127.478V59.1803H130.074V58.8496H127.478V56.4097H130.074V56.0835H127.148V61.9464Z" fill="white"/>
<path d="M141.808 57.9961C141.808 57.4688 141.62 57.0174 141.246 56.6421C140.934 56.3293 140.554 56.1416 140.108 56.0835H138.57V61.9508H138.9V59.9176H139.894C139.93 59.9176 139.961 59.9176 139.992 59.9176L141.299 61.9553H141.705L140.354 59.8684C140.688 59.788 140.983 59.6182 141.241 59.359C141.616 58.9836 141.803 58.5323 141.803 58.0005L141.808 57.9961ZM139.899 59.578H138.904V56.4142H139.899C140.331 56.4142 140.706 56.5661 141.014 56.8744C141.322 57.1828 141.478 57.5537 141.478 57.9916C141.478 58.4295 141.322 58.8049 141.014 59.1132C140.706 59.4216 140.336 59.578 139.899 59.578Z" fill="white"/>
<path d="M151.825 59.2071L150.023 56.0835H149.648L151.66 59.5735V61.9464H151.99V59.5735L154.006 56.0835H153.631L151.825 59.2071Z" fill="white"/>
<path d="M95.2138 47.2445C93.8758 47.106 93.0507 47.0211 92.7474 46.9943C91.6815 46.8736 91.0259 46.7976 90.7851 46.7664L91.24 43.1065C92.792 44.2058 94.4065 45.0906 96.079 45.7609C97.7515 46.4312 99.2768 46.7664 100.646 46.7664C102.015 46.7664 103.103 46.3865 103.911 45.6224C104.718 44.8582 105.119 43.6562 105.119 42.0072C105.119 41.0643 104.807 40.2063 104.183 39.4467C103.558 38.687 102.791 38.0212 101.877 37.4581C100.963 36.8951 99.7005 36.1845 98.086 35.331C96.3823 34.4462 95.0265 33.6821 94.023 33.0431C93.0195 32.404 92.1676 31.6399 91.4674 30.7551C90.7672 29.8703 90.4193 28.8648 90.4193 27.7343C90.4193 25.567 91.3381 23.9895 93.1801 22.9975C95.022 22.0054 97.3724 21.5094 100.236 21.5094C102.885 21.5094 105.44 21.858 107.907 22.5595L106.399 26.2194C105.454 25.2452 104.232 24.3291 102.724 23.4756C101.217 22.6221 99.705 22.1931 98.1797 22.1931C96.9933 22.1931 95.9809 22.5283 95.1424 23.1986C94.304 23.8689 93.8892 24.6956 93.8892 25.6697C93.8892 26.921 94.4601 27.9979 95.6018 28.8961C96.7436 29.7943 98.4562 30.8266 100.74 31.984C102.537 32.9001 103.964 33.7 105.03 34.3837C106.096 35.0718 107.001 35.8851 107.746 36.8325C108.491 37.7799 108.866 38.8613 108.866 40.0812C108.866 42.8563 107.969 44.7778 106.172 45.8458C104.375 46.9138 102.015 47.4456 99.094 47.4456C97.8452 47.4456 96.5518 47.3786 95.2138 47.24V47.2445Z" fill="white"/>
<path d="M118.156 46.0782C116.314 45.1621 114.815 43.7053 113.66 41.7078C112.505 39.7103 111.925 37.1721 111.925 34.0887C111.925 31.4969 112.478 29.2492 113.593 27.341C114.704 25.4374 116.189 23.9851 118.044 22.9975C119.9 22.0054 121.938 21.5094 124.163 21.5094C127.178 21.5094 129.377 22.0725 130.76 23.203C132.142 24.3336 132.838 25.8127 132.838 27.6404C132.838 28.7978 132.513 29.8614 131.857 30.8177C131.201 31.774 130.394 32.6096 129.435 33.3112C128.476 34.0128 127.236 34.835 125.716 35.7824C123.798 36.9397 122.384 37.9318 121.47 38.754C120.555 39.5763 120.1 40.5236 120.1 41.5916H119.369C119.369 40.5549 119.668 39.688 120.261 38.9819C120.854 38.2803 121.804 37.4268 123.115 36.4214C124.213 35.5991 125.096 34.8663 125.765 34.2273C126.434 33.5882 127.004 32.7794 127.477 31.8008C127.95 30.8221 128.186 29.696 128.186 28.4135C128.186 27.56 128.012 26.6618 127.66 25.7144C127.308 24.7715 126.755 23.9538 125.992 23.2656C125.229 22.5819 124.288 22.2378 123.16 22.2378C121.059 22.2378 119.445 23.2745 118.321 25.348C117.197 27.4215 116.631 30.335 116.631 34.0843C116.631 38.5082 117.42 41.7257 119.003 43.7366C120.587 45.7475 122.562 46.7574 124.939 46.7574C126.219 46.7574 127.482 46.4893 128.73 45.9575C129.979 45.4258 131.027 44.7286 131.879 43.8751L132.334 44.7912C131.331 45.6134 130.104 46.2614 128.659 46.7351C127.214 47.2088 125.698 47.4456 124.114 47.4456C121.983 47.4456 119.998 46.9898 118.156 46.0737V46.0782Z" fill="white"/>
<path d="M166.231 44.5644C164.389 43.6483 162.89 42.1915 161.735 40.194C160.58 38.1965 160 35.6583 160 32.5749C160 29.9831 160.553 27.7353 161.668 25.8272C162.779 23.9236 164.264 22.4712 166.119 21.4837C167.974 20.4916 170.013 19.9956 172.238 19.9956C175.253 19.9956 177.452 20.5587 178.834 21.6892C180.217 22.8198 180.913 24.2989 180.913 26.1266C180.913 27.284 180.587 28.3476 179.932 29.3038C179.276 30.2601 178.469 31.0958 177.51 31.7974C176.551 32.499 175.311 33.3212 173.79 34.2685C171.872 35.4259 170.459 36.418 169.544 37.2402C168.63 38.0625 168.175 39.0098 168.175 40.0778H167.444C167.444 39.0411 167.743 38.1742 168.336 37.4681C168.929 36.7665 169.879 35.913 171.19 34.9076C172.287 34.0853 173.17 33.3525 173.839 32.7134C174.508 32.0744 175.079 31.2656 175.552 30.287C176.025 29.3083 176.261 28.1822 176.261 26.8997C176.261 26.0462 176.087 25.148 175.735 24.2006C175.382 23.2577 174.829 22.44 174.067 21.7518C173.304 21.0681 172.363 20.724 171.235 20.724C169.134 20.724 167.52 21.7607 166.396 23.8342C165.272 25.9077 164.705 28.8212 164.705 32.5704C164.705 36.9944 165.495 40.2119 167.078 42.2228C168.661 44.2337 170.637 45.2436 173.014 45.2436C174.294 45.2436 175.556 44.9755 176.805 44.4437C178.054 43.9119 179.102 43.2148 179.954 42.3613L180.409 43.2774C179.405 44.0996 178.179 44.7476 176.734 45.2213C175.289 45.6949 173.772 45.9318 172.189 45.9318C170.057 45.9318 168.073 45.476 166.231 44.5599V44.5644Z" fill="white"/>
<path d="M137.762 46.6725C138.065 46.2748 138.288 45.2247 138.422 43.5176C138.56 41.8106 138.627 39.8444 138.627 37.6145V21.143C138.627 18.9176 138.56 16.9514 138.422 15.2443C138.283 13.5373 138.065 12.4827 137.762 12.0894V12.0001H143.288V37.619C143.288 39.8444 143.354 41.8106 143.493 43.5221C143.631 45.2291 143.849 46.2837 144.153 46.677V46.7664H137.762V46.677V46.6725Z" fill="white"/>
<path d="M149.72 46.6725C150.023 46.2748 150.246 45.2247 150.38 43.5176C150.514 41.8106 150.585 39.8444 150.585 37.6145V21.143C150.585 18.9176 150.518 16.9514 150.38 15.2443C150.242 13.5373 150.023 12.4827 149.72 12.0894V12.0001H155.246V37.619C155.246 39.8444 155.313 41.8106 155.451 43.5221C155.589 45.2336 155.808 46.2837 156.111 46.677V46.7664H149.72V46.677V46.6725Z" fill="white"/>
<path d="M77.6772 47.2535C76.9993 47.3428 76.3035 47.3473 75.5944 47.3875C71.8748 47.5841 69.3148 46.4714 66.0724 44.6437C62.83 42.8161 60.1451 40.5817 58.0132 37.9407C55.8813 35.3042 54.8199 32.9179 54.8199 30.7819C54.8199 29.991 55.1856 29.2938 55.917 28.6995C56.6485 28.1052 57.7902 27.3947 59.3423 26.5724C60.7427 25.8083 61.8622 25.138 62.6962 24.557C63.5347 23.9806 64.2572 23.2611 64.8637 22.4076C65.4703 21.5541 65.778 20.5486 65.778 19.3868C65.778 17.3446 65.0867 15.718 63.6997 14.5159C62.3126 13.3139 60.3592 12.7106 57.8348 12.7106H44V12.8C44.3033 13.1977 44.5263 14.2478 44.6601 15.9548C44.7983 17.6619 44.8652 19.6281 44.8652 21.8535V38.3206C44.8652 40.546 44.7983 42.5122 44.6601 44.2237C44.5218 45.9307 44.3033 46.9853 44 47.3786V47.4679H50.3911V47.3786C50.0879 46.9809 49.8649 45.9307 49.7311 44.2237C49.5928 42.5167 49.5259 40.5504 49.5259 38.3206L49.4813 13.4345H55.917C59.4761 13.4345 61.2601 15.4186 61.2601 19.3823C61.2601 20.3297 61.1084 21.1609 60.8052 21.8758C60.5019 22.5908 60.1451 23.1941 59.7303 23.6812C59.32 24.1683 58.7179 24.7939 57.9285 25.558C57.0766 26.3535 56.3898 27.0595 55.8724 27.6851C55.3551 28.3107 54.9135 29.0883 54.5478 30.0178C54.1821 30.9473 53.9992 32.0555 53.9992 33.3335C53.9992 35.9566 54.6772 38.3876 56.033 40.6309C57.3888 42.8741 59.5251 44.6795 62.4464 46.0514C65.3677 47.4233 69.065 48.1114 73.5428 48.1114C73.5428 48.1114 77.1955 48.1472 78.3194 47.4054L77.6817 47.2445L77.6772 47.2535Z" fill="white"/>
<path d="M86.1957 24.7492C84.5857 22.5774 82.2398 21.4871 79.1535 21.4871C77.2312 21.4871 75.5855 21.9697 74.2252 22.9304C72.8604 23.8957 71.8213 25.2497 71.1077 26.9969C70.3896 28.7442 70.0328 30.773 70.0328 33.0788C70.0328 34.8931 70.3183 36.4839 70.8891 37.8513C71.46 39.2188 72.187 40.2644 73.0701 40.9928C73.9531 41.7212 74.8317 42.0832 75.7014 42.0832C76.5711 42.0832 77.3472 41.824 77.9493 41.3101C78.5514 40.7962 78.8546 40.1125 78.8546 39.259H78.1856C78.1856 39.8399 78.0608 40.2912 77.8155 40.604C77.5702 40.9169 77.2446 41.0733 76.8432 41.0733C76.3749 41.0733 75.8754 40.7336 75.3491 40.0499C74.8228 39.3662 74.3813 38.4144 74.0245 37.1945C73.6677 35.9745 73.4893 34.6026 73.4893 33.0788C73.4893 29.562 73.9799 26.8495 74.9655 24.9458C75.9512 23.0422 77.3472 22.0903 79.1579 22.0903C81.1694 22.0903 82.6813 23.0824 83.6848 25.0665C84.6927 27.0506 85.1922 29.8345 85.1922 33.4184C85.1922 36.7118 84.7106 39.4064 83.7517 41.5023C82.7883 43.5981 81.5039 45.1219 79.8938 46.0737C78.7788 46.7351 77.5657 47.1641 76.2545 47.3652V47.8165C77.0171 48.1204 79.5459 47.1417 80.9999 46.5116C83.3458 45.4928 85.2056 43.8885 86.5659 41.7033C87.9307 39.5182 88.613 36.7565 88.613 33.4184C88.613 29.8122 87.8103 26.921 86.2002 24.7492H86.1957Z" fill="white"/>
<path d="M80.5138 34.0396C80.8928 33.3335 81.4637 32.7615 82.2219 32.3281L83.4439 31.6756L82.2219 30.9428C81.4637 30.5629 80.8928 29.991 80.5138 29.2313L79.7823 27.9264L79.1312 29.2313C78.6985 29.991 78.1277 30.5629 77.423 30.9428L76.1207 31.6756L77.423 32.3281C78.1277 32.7615 78.6985 33.3335 79.1312 34.0396L79.7823 35.3444L80.5138 34.0396Z" fill="white"/>
</g>
</svg>
